<?xml version="1.0" encoding="UTF-8"?>
<svg width="752pt" height="752pt" version="1.1" viewBox="0 0 752 752" xmlns="http://www.w3.org/2000/svg">
 <path d="m494.92 482.6c-2.0586-1.168-5.3008-0.65234-9.9219 1.5586-8.9805 4.3086-17.684 4.6836-22.301 3.1367-5.1797-1.7188-13.887-6.8164-16.117-12.246-1.6953-4.1445-3.2695-11.711-4.7969-19.035-0.64453-3.1055-1.2773-6.1758-1.9023-8.9219-1.0195-4.4219-3.1914-10.141-5.1055-15.18-1.9336-5.0781-4.1172-10.836-3.9609-12.551l0.12891-1.293c0.34766-3.2852 0.40234-4.9531-1.8945-9.8789-1.5742-3.3672-4.043-5.8828-6.0156-7.9102-1.3125-1.3438-2.4531-2.4961-2.9258-3.4805-0.63281-1.2891-1.832-4.168-3.2266-7.4961-1.6914-4.0664-3.7383-8.9648-5.6836-13.23-3.7305-8.2031-14.832-20.723-18.145-24.367-3.3086-3.6484-3.1836-5.3359-1.5859-7.9922 1.1328-1.8789 2.3047-4.5234 3.6953-7.7539 5.9336 8.1836 6.918 8.2109 7.7148 8.2109 2.2812 0 9.5-6.2305 10.098-6.8086 1.9258-1.8516 14.176-15.965 15.773-20.375 1.25-3.4297 9.6641-8.3398 12.836-10.191 4.1094-2.3945 6.1953-6.2578 6.1953-11.457 0-4.7188-4.0352-9.8398-5.7773-11.824-0.84766-0.96484-1.9844-1.4805-3.3008-1.5h-0.0625c-4.0156 0-8.6211 4.7891-9.5078 5.7578-1.332 1.4414-2.4609 4.0977-3.9023 7.4492-1.5664 3.6758-3.5234 8.2422-6.1758 12.004-4.2227 6.0195-8.332 10.602-10.309 12.059-0.59375-4.957-3.0273-17.555-3.4414-19.688 1.7109-9.3398 0.44531-18.371-3.457-24.219-2.0781-3.1172-5.1133-5.7891-7.5664-7.9336-1.332-1.1758-3.1523-2.7695-3.3672-3.3438-0.47266-1.3984 0.47656-6.4219 1.7109-9.1211 0.22266-0.49219 0.35938-0.57422 1.7578-0.66016 1.3633-0.085937 3.4258-0.20312 5.1133-2.1484 2.2461-2.5586 2.2148-9.1289 2.0078-12.73 0.25-0.046875 0.50781-0.11719 0.76172-0.23047 0.78906-0.35156 1.8203-1.1758 2.2539-3.1367 0.55469-2.5117-0.96094-4.2891-2.4258-6.0195-1.1641-1.3789-2.3789-2.793-2.9609-4.8164-1.3789-4.8359-3.5273-9.125-6.0508-12.062-2.6367-3.0781-8.8164-7.4922-14.156-6.2617-4.8125 1.1133-14.816 3.418-19.371 9.7969-4.3945 6.1484-2.9805 14.43-1.5352 20.121 0.9375 3.6953 2.0508 6.1914 3.9531 8.3359-0.027344 0.082031-0.046875 0.17188-0.0625 0.26172-0.015625 0.097656-0.14062 0.87109-0.29297 2.0938-4.5703-0.15234-18.176-0.12891-23.199 5.2383-1.9141 2.043-6.7383 2.7227-11.844 3.4414-4.4805 0.62891-9.1133 1.2852-12.949 2.9492-4.0352 1.7578-13.492 6.293-14.207 10.555-0.44141 2.6445 3.9883 26.555 6.582 31.742 2.4375 4.875 4.6641 10.027 2.8008 14.688-2.3008 5.7539-2.7266 12.672-0.97266 15.758 1.7148 2.9961 3.6875 4.0625 7.5391 4.0625l1.3555-0.019531c0.37109-0.003906 0.59766-0.027344 0.71094-0.019531 0.16016 0.082031 0.33203 0.22266 0.625 0.44531l0.96484 0.71094c0.80859 0.58203 1.5547 0.76172 2.168 0.76172 0.55859 0 1.0117-0.15234 1.3125-0.29297 1.543-0.71484 3.4102-2.7734 4.1875-12.426 0.60547-7.6055 0.21875-8.8789-1.3555-12.539-0.26562-0.61719-0.56641-1.3125-0.89844-2.1484-2.4492-6.1172-4.7969-15.41-4.1758-21.336 0.51953-4.9688 0.48828-10.043 0.42188-12.57 2.3281-0.25 7.0195-0.89063 13.293-2.3906 3.8711-0.93359 7.9336-1.3828 11.512-1.7812 0.4375-0.046874 0.81641-0.097656 1.2305-0.14062 1.2656 3.3516 4.7773 13.047 5.9141 19.84 0.53125 3.1758 1.4336 6.9883 2.3945 11.02 1.6094 6.7773 3.4336 14.453 3.6523 20.195 0.25 6.5391-1.9609 10.363-4.0977 14.055-0.73438 1.2578-1.4336 2.4766-2.0117 3.7461-2.0977 4.5547-5.1875 20.129-0.77734 27.52 0.125 0.35547 1.1328 3.5156-1.3438 6.8203-0.78125 1.0391-1.8984 2.3477-3.1602 3.8398-4.0312 4.7266-9.543 11.195-10.711 16.457-1.4414 6.4844-8.1133 17.824-10.133 18.836-1.0625 0.35156-6.2891-0.45312-10.109-1.0391-9.1016-1.4062-15.773-2.2695-18.863-0.73047-1.5664 0.78516-3.1836 1.7773-4.8984 2.8164-3.8359 2.3438-7.8047 4.7773-11.684 5.2266-2.0742 0.24219-4.1641 0.75-6.1797 1.2422-3.5039 0.85156-7.1289 1.7188-8.6602 0.53516-1.4297-1.1172-4.1328-4.2383-6.5156-6.9961-3.9531-4.5703-5.5586-6.3398-6.75-6.8164-1.1133-0.44141-2.2773 0.18359-3.168 0.79688-2.6992 1.832-12.004 11.055-12.004 13.277 0 1.5977-0.46875 4.7773-0.84375 5.2578-0.17188 0.074219-0.75781 0.12891-1.1836 0.16406-2.0273 0.19531-5.4219 0.51562-7.1094 4.2305-1.2031 2.6445-4.9492 9.3633-7.4258 13.809-1.1836 2.1211-2.1484 3.8555-2.582 4.6758-0.46484 0.875-1.8672 3.5469-0.48828 5.332 0.75 0.97266 1.9805 1.2031 2.9609 1.1016 0.20312 0.042969 0.44531 0.070313 0.73438 0.070313 1.4258 0 3.8398-0.70703 7.0781-4.2188 0.94141-1.0273 1.6797-1.875 2.3047-2.5898 2.1484-2.4727 2.5898-2.9883 5.4336-3.6992 1.8281-0.46484 3.3164-0.64062 4.8867-0.83203 2-0.24609 4.0742-0.49609 6.9531-1.3203 2.3164-0.66797 3.7617-1.3203 5.0352-1.9023 1.5312-0.69922 2.7383-1.2578 5.1094-1.625 1.4805-0.22266 3.3477-0.66406 5.4141-1.1406 4.3203-1.0195 9.7031-2.293 13.879-2.0508 2.7617 0.15234 5.8828 0.57812 9.4961 1.0781 4.7344 0.64453 10.098 1.3789 16.562 1.7812 6.6367 0.41016 10.457-0.023437 13.828-0.41016 2.5156-0.29297 4.6797-0.53516 7.6406-0.39453 2.0547 0.10547 3.9258 0.28125 5.6328 0.42969 4.3516 0.38672 7.7969 0.70703 10.477-0.48438 2.0352-0.90625 3.8516-3.3945 6.1406-6.5391 2.0664-2.8398 4.4062-6.0469 7.3594-8.7617 6.3711-5.8438 13.578-15.574 16.875-20.691 2.1641-3.3672 4.1836-7.918 5.3477-10.742 0.54297 0.66016 1.0547 1.2852 1.5117 1.9023 3.2422 4.3867 9.4375 9.3945 14.898 13.809 4.7227 3.8164 9.5977 7.7617 10.66 9.8633 0.85547 1.7031 1.582 6.9648 2.3594 12.531 1.3242 9.5469 2.9805 21.41 6.625 27.582 1.1875 2 2.7031 4.4141 4.418 7.1211 6.6016 10.473 15.641 24.801 18.977 36.75 1.332 4.7539 2.207 8.5664 2.9062 11.625 1.6289 7.1172 2.4531 10.695 6.1328 11.691 0.32031 0.058594 0.67578 0.09375 1.0547 0.09375 6.125 0 20.59-10.273 20.738-10.375 1.7422-1.25 1.8594-2.8945 1.9219-3.8867 0.015625-0.15234 0.027344-0.34766-0.039063-0.375 0.10938-0.027344 0.33203-0.066407 0.69922-0.066407 4.2852 0 11.5-5.2617 16.797-9.6758 4.5508-3.793 9.5469-15.5 9.7617-15.996 0.097656-0.25391 0.15234-0.53125 0.125-0.80859-0.042969-0.75391-0.55469-1.8867-1.7539-2.5625zm-87.578-159.57c3.2812 0.89062 9.6914-7.043 14.488-13.863 2.8516-4.0586 4.8828-8.8047 6.5117-12.621 1.2109-2.8164 2.3438-5.4805 3.2812-6.4961 2.1367-2.3242 5.2266-4.6641 7.0195-4.6641 0.38672-0.003906 0.60938 0.10547 0.82422 0.35156 3.0859 3.5312 4.9375 7.1172 4.9375 9.5977 0 3.9688-1.4766 6.7617-4.5117 8.5391-6.5742 3.8359-12.848 7.9336-14.309 11.953-1.2422 3.4102-12.488 16.73-14.938 19.09-2.0156 1.9375-6.1602 4.9688-7.457 5.7227-1.1875-1.1836-4.0195-4.8828-6.4609-8.3125 0.93359-2.1914 1.9336-4.5273 3.0547-7.0039 2.3555-5.1797 3.2031-10.344 3.9766-15.742 0.78516 4.3516 1.5664 8.9492 1.7305 10.898 0.14844 1.8906 1.3438 2.4141 1.8516 2.5508zm-11.434-96.867c0.77734 2.7266 2.3594 4.5859 3.6289 6.0742 1.3398 1.5781 1.8711 2.3047 1.6992 3.0938-0.13672 0.62109-0.3125 0.77734-0.3125 0.77734-0.074219 0.023437-0.30469-0.03125-0.41797-0.089844-0.53516-0.30859-1.2227-0.29297-1.7461 0.046875-0.53516 0.33984-0.83203 0.95703-0.76562 1.582 0.39844 4.0312 0.35156 10.723-1.0195 12.289-0.73047 0.83984-1.5 0.92188-2.7852 1-1.4062 0.085937-3.5195 0.21484-4.625 2.625-1.0391 2.2656-2.4688 7.4844-2.0547 10.609-1.0195 1.1836-4.082 4.1445-9.0273 3.418-4.1875-0.59766-5.2383-9.6758-5.3516-14.926l0.44922 0.23828c0.82812 0.44141 1.8555 0.125 2.293-0.69531 0.12891-0.25391 0.19922-0.52734 0.19922-0.78906 0-0.60547-0.32812-1.1875-0.89844-1.4922-1.832-0.97266-3.375-1.8203-4.7188-2.6016 1.5391-1.8867 3.9219-5.6016 3.0156-9.8359-1.293-6.0742-3.4258-7.6562 0.91406-12.496 2.8242-3.1602 6.1133 6.0664 7.668 6.4219 1.5547 0.35938 2.9805-4.6406 2.9805-9.6367 0-3.8516 2.3281-6.4141 4.707-7.2305 0.30469 0.29297 0.57422 0.57812 0.79688 0.83203 2.207 2.5703 4.1172 6.4062 5.3711 10.785zm-43.859 50.863c-0.72266-2.1367-1.3867-3.9688-1.875-5.2695 2.6172-0.38672 4.7695-0.88281 6.1406-1.793 0.77734-0.51563 0.98438-1.5664 0.46875-2.3438-0.51562-0.77344-1.5664-0.98438-2.3438-0.46875-1.4453 0.96094-5.2656 1.3867-9.3203 1.8438-3.6797 0.40625-7.8477 0.875-11.926 1.8516-8.6562 2.0742-14.301 2.4531-14.359 2.457-0.91797 0.0625-1.625 0.85156-1.582 1.7773 0 0.070313 0.33984 7.0977-0.34766 13.668-0.78906 7.4766 2.3945 17.938 4.3984 22.945 0.34766 0.87109 0.66406 1.5977 0.93359 2.2305 1.3398 3.1133 1.6562 3.8516 1.0898 10.934-0.69141 8.6602-2.2266 9.6094-2.3281 9.4766l-0.91016-0.66797c-1.3555-1.0117-1.7578-1.1523-3.4414-1.0938l-1.2734 0.019532c-2.8086 0-3.5742-0.55859-4.6016-2.3633-0.97266-1.6992-1-7.3984 1.168-12.82 2.3828-5.957-0.25391-12.137-2.9141-17.457-2.3789-4.7539-6.4805-27.379-6.2734-29.68 0.15625-0.95312 3.3594-4.1562 12.219-8.0117 3.418-1.4805 7.8203-2.1094 12.07-2.7031 5.7148-0.80469 11.113-1.5625 13.844-4.4766 3.5859-3.832 14.809-4.332 20.383-4.1719-0.30469 3.6367-0.52734 8.6758-0.085937 13.875 0.78125 8.8828-6.4023 11.555-9.1328 12.242zm6.2773 25.266c-0.94141-3.9727-1.8438-7.7344-2.3438-10.797-0.57812-3.4609-1.7109-7.543-2.8711-11.23 5.0547-1.2969 12.312-5.7539 11.453-15.785-0.54297-6.4531-0.003906-12.836 0.37891-16.152l4.8125 2.5469c-0.085937 3.6406 0.074219 18.895 8.25 20.066 0.69141 0.097656 1.3594 0.14844 2 0.14844 4.4141 0 7.4766-2.1562 9.1719-3.7695 0.73438 0.77734 1.7148 1.6289 2.8828 2.6602 2.2969 2.0078 5.1484 4.5195 6.9805 7.2656 3.4258 5.125 4.5234 13.582 2.8945 22.062-0.55078 2.8828-0.93359 5.6328-1.3008 8.2812-0.83203 5.9688-1.5547 11.113-3.9219 16.34-1.3594 2.9844-2.5664 5.8164-3.6523 8.3789-1.3633 3.2109-2.5781 6.043-3.6562 8.1445-1.0664-3.1836-3.8086-8.8125-10.438-12.25-7.5352-3.9023-14.598-0.63281-17.348 0.99609 0.35156-1.7891 0.55469-3.7695 0.46484-6.0586-0.24609-6.0742-2.1133-13.926-3.7578-20.848zm-5.6797 120.01c-3.2031 2.9375-5.7578 6.4375-7.8086 9.2539-1.8359 2.5234-3.5703 4.9102-4.7812 5.4453-1.875 0.83203-4.9258 0.55469-8.8008 0.20312-1.7422-0.15625-3.6641-0.33203-5.7734-0.44531-3.2305-0.15625-5.6445 0.11719-8.1914 0.40625-3.2344 0.37891-6.9062 0.79688-13.227 0.39844-6.3477-0.39453-11.645-1.1133-16.316-1.7578-3.6875-0.49609-6.875-0.9375-9.7656-1.0898-4.6758-0.26953-10.309 1.0664-14.836 2.125-1.9766 0.46484-3.7461 0.88281-5.1523 1.0977-1.3086 0.20312-2.3203 0.46484-3.2148 0.75391-0.44141-2.0781-1.0039-5.5352-0.57812-8.0898 0.29688-1.7891 5.582-3.9258 10.551-4.9219 2.7891 1.5234 6.668 0.62109 10.77-0.37109 1.9258-0.46875 3.918-0.95313 5.7812-1.1758 4.6133-0.53516 9.0938-3.2734 13.051-5.6875 1.6484-1.0078 3.2109-1.9609 4.6445-2.6797 2.3672-1.1836 10.73 0.097656 16.836 1.0469 7.0078 1.0859 10.453 1.5625 12.09 0.73828 3.4336-1.7109 9.8516-13.43 11.707-20.145 2.668 0.12891 8.1094 0.89062 13.965 4.707 5.4023 3.5156 7.5508 7.4844 8.3984 9.8047-2.9414 3.7305-6.2461 7.5508-9.3477 10.383zm67.852 42.086c-1.6992-2.6797-3.2031-5.0781-4.375-7.0547-3.3047-5.5703-4.9023-17.074-6.1914-26.312-0.89063-6.3555-1.582-11.371-2.6797-13.574-1.3867-2.7695-6.0938-6.5781-11.551-10.988-3.1953-2.5898-6.6406-5.375-9.5391-8.0664 2.043-1.6289 6.2695-4.793 11.359-7.332 5.2578-2.6328 11.039-5.2383 13.73-6.4297 0.88281 2.0742 1.7383 4.1172 2.5156 5.9844 1.4727 3.5156 2.6289 6.2891 3.3008 7.6758 0.71875 1.4727 2.0273 2.8125 3.543 4.3555 1.8945 1.9414 4.043 4.1328 5.375 6.9844 2 4.2812 1.8906 5.3164 1.6016 8.0938l-0.13672 1.3516c-0.21484 2.3672 1.4453 6.8828 4.1641 14.051 1.875 4.9453 4.0117 10.547 4.9766 14.738 0.62891 2.7344 1.2578 5.7695 1.8906 8.8359 1.5547 7.4844 3.1602 15.207 4.9805 19.633 1.5977 3.8828 5.6719 7.4727 9.9648 10.164 0.46094 3.4648 1.1289 10.23 0 14.324-0.40234 1.4531-1.0273 2.5703-1.9805 3.0703-1.5312 0.82422-3.4766 0.95312-5.4141 0.75-2.2031-0.22266-4.3555-0.875-5.8438-1.4062-0.10938-0.40625-0.21484-0.79688-0.33203-1.2227-3.4648-12.418-12.656-26.988-19.359-37.625zm-44.496-301.49c-117.7 0-213.11 95.41-213.11 213.11 0 117.7 95.414 213.11 213.11 213.11 117.7 0 213.11-95.406 213.11-213.11-0.003907-117.7-95.41-213.11-213.12-213.11zm0 407.28c-109.68 0-198.9-89.227-198.9-198.9s89.227-198.9 198.9-198.9 198.9 89.227 198.9 198.9c0.003906 109.68-89.223 198.9-198.9 198.9z"/>
</svg>
