<?xml version="1.0" encoding="UTF-8"?>
<svg width="752pt" height="752pt" version="1.1" viewBox="0 0 752 752" xmlns="http://www.w3.org/2000/svg">
 <path d="m337.25 416.39c19.535-5.0547 39.98-5.668 58.734-3.7266 0.94141 0.097656 1.8164 0.19531 2.6211 0.29297 36.973-30.391 72.078-33.637 101.25-19.977 6.0742 2.8438 10.461 5.7773 13.031 7.9688l0.96094 0.92578c34.504 37.664 38.66 71.188 13.25 96.141-19.887 19.527-56.98 32.086-105.53 38.359-40.984 5.2969-88.262 5.6289-127.83 1.4375-44.199-4.6797-70.91-12.977-73.668-29.375-1.8867-10.789-3.3516-22.043-4.418-33.711-3.875-42.426-2.4102-87.648 2.3711-131.32 0.99609-9.1055 2.0664-17.398 3.1367-24.723 0.375-2.5742 0.72656-4.8477 1.043-6.8008 0.14062-0.88672 0.25781-1.5703 0.33594-2.0469 0.75-6.5156 6.0156-17.676 15.75-35.68 0.73828-1.3711 1.5-2.7695 2.2812-4.1914 3.7188-6.7773 7.6953-13.805 11.672-20.684 1.3906-2.4062 2.6836-4.625 3.8438-6.6016 0.54297-0.92969 0.96875-1.6484 1.2578-2.1367 3.6797-7.3477 9.0234-12.078 15.801-13.402 7.3828-1.4453 13.91 1.2812 19.863 6.1406 1.2383 1.0156 2.332 2.0195 3.2695 2.9688 4.5859 1.4492 8.6328 3.0234 12.176 4.7188 12.203 5.8359 18.531 13.375 19.758 20.922 12.062 16.062 6.4258 30.941-8.8828 39.57-2.9492 1.6641-5.8398 2.918-8.4023 3.8203-2.2578 2.2422-5.5469 4.2539-10.309 6.8594-1.4961 0.82031-3.1133 1.6641-4.8281 2.5273-3.0742 1.5391-6.332 3.0703-9.5898 4.5352-0.54687 0.24219-1.0586 0.47266-1.5352 0.68359-0.48828 1.5312-0.92969 3.7734-1.2695 6.5938-0.70312 5.8125-0.93359 13.574-0.74219 22.727 0.16016 7.4883 0.58984 15.539 1.207 23.703 0.28125 3.6914 0.58203 7.1562 0.87891 10.293 0.039063 0.42188 0.078125 0.8125 0.11328 1.1758 9.7461 14.035 15.98 28.492 19.316 42.789 0.26563 1.1445 0.51172 2.2695 0.73438 3.375 9.4375-6.3828 20.32-11.035 32.355-14.148zm153.43-4.0273c-22.652-10.609-49.992-7.6445-81.715 19.941-2.457 2.1367-5.7539 3.0469-8.9688 2.4805-1.0469-0.1875-3.1914-0.49609-6.2422-0.8125-16.41-1.6992-34.43-1.1602-51.094 3.1523-16.164 4.1797-29.219 11.559-38.383 22.594-6.7852 8.1719-20.098 2.6211-19.004-7.9258 0.11719-2.0352 0.10156-4.2461-0.09375-6.957-0.28906-3.9492-0.92578-8.25-1.9922-12.824-2.8984-12.418-8.5-25.086-17.492-37.48-1.0938-1.5039-1.7734-3.2656-1.9766-5.1094-0.085937-0.79297-0.23437-2.2266-0.42187-4.1992-0.3125-3.2656-0.62109-6.8711-0.91406-10.703-0.64453-8.5234-1.0938-16.949-1.2617-24.867-0.55469-26.223 1.2031-40.773 10.258-47.141 0.62891-0.4375 1.2969-0.8125 2.0039-1.1094 0.76562-0.32422 2.1523-0.92578 3.9492-1.7344 3-1.3438 5.9922-2.75 8.7578-4.1367 1.4961-0.75391 2.8828-1.4766 4.1367-2.1602 2.0859-1.1445 3.7305-2.1484 4.7852-2.9141-0.18359 0.13281-0.39062 0.33984-0.83984 1.7383 1.082-3.0039 3.9141-5.5938 7.4453-6.4727 1.582-0.39453 4.4141-1.3945 7.0898-2.9023 5.543-3.1289 5.8828-4.1641 0.78125-9.8945-1.8281-2.0547-2.7734-4.6992-2.7031-7.375-0.98828-1.3672-3.3477-3.2109-7.6719-5.2812-3.1719-1.5156-7.1055-2.9844-11.848-4.3594-2.1406-0.62109-4.0352-1.8867-5.4219-3.625-0.375-0.47266-1.3125-1.4727-2.5039-2.4453-0.80078-0.65625-1.457-1.0742-1.8203-1.3281-0.29688 0.41797-0.64062 1-1.0117 1.7695l-0.42969 0.79688c-0.25391 0.42578-0.73438 1.2422-1.4141 2.4023-1.1406 1.9375-2.4062 4.1133-3.7734 6.4805-3.9023 6.75-7.8047 13.645-11.441 20.27-0.75781 1.3828-1.4961 2.7422-2.2188 4.0703-7.7773 14.387-13.18 25.957-13.285 27.625l-0.14062 1.1797c-0.0625 0.35156-0.18359 1.0859-0.35938 2.1758-0.30078 1.8477-0.63281 4.0156-0.99609 6.4805-1.0312 7.082-2.0703 15.121-3.0352 23.961-4.6406 42.375-6.0625 86.254-2.3359 127.06 0.96875 10.605 2.2812 20.816 3.9609 30.648 0.24219 0.19141 0.5625 0.41797 0.96484 0.67578 2.293 1.4492 5.9961 3.0234 10.887 4.543 10.461 3.2461 25.414 5.9844 43.117 7.8594 37.918 4.0156 83.504 3.6953 122.78-1.3828 44.266-5.7188 77.512-16.973 93.184-32.363 15.914-15.629 13.477-36.191-13.523-65.891-1.375-1.0664-4.0156-2.7539-7.7695-4.5117z"/>
</svg>
