<?xml version="1.0" encoding="UTF-8"?>
<svg width="752pt" height="752pt" version="1.1" viewBox="0 0 752 752" xmlns="http://www.w3.org/2000/svg">
 <defs>
  <clipPath id="a">
   <path d="m139.21 200h473.58v352h-473.58z"/>
  </clipPath>
 </defs>
 <g clip-path="url(#a)">
  <path d="m323.5 253.02c0-28.918 23.438-52.359 52.352-52.359 28.922 0 52.367 23.445 52.367 52.359 0 28.922-23.445 52.359-52.367 52.359-28.914 0-52.352-23.445-52.352-52.359zm289.14 192.22c-1.7617-16.742-11.938-24.566-20.875-26.301-5.9961-1.168-11.125 0.45312-13.082 4.1289-0.78516 1.4766-2.0859 5.4375 2.7812 10.301 9.0977 9.0977 8.1797 12.367 7.8945 12.926-1.1445 2.3281-7.9766 3.2891-14.863 2.9844 4.0703-10.434 3.9609-17.996-0.17969-21.969-3.4609-3.3281-17.414-6.4844-23.461 15.969l-54.852-26.809c-2.9258-7.9648-18.57-50.59-26.152-73.262-7.9883-23.91-26.355-24.305-42.555-24.656-1.6719-0.035157-100.9-0.035157-102.57 0-16.207 0.35547-34.566 0.74219-42.562 24.656-7.582 22.672-23.223 65.297-26.145 73.262l-54.852 26.809c-1.4336-5.1406-4.5938-13.344-10.797-17.105-3.7344-2.2695-11.34-2.8477-14.965 1.4883-3.6133 4.3438-1.957 11.195 2.1133 21.625-6.8906 0.30859-13.707-0.65234-14.863-2.9844-0.27344-0.55859-1.2031-3.8203 7.8984-12.926 4.8633-4.8672 3.5625-8.8281 2.7773-10.301-1.9531-3.6758-7.0859-5.2969-13.074-4.1289-8.9414 1.7383-19.117 9.5625-20.875 26.301-0.88281 8.4336 1.8516 15.734 7.9297 21.109 7.6055 6.7266 20.207 10.23 35.328 10.23 8.3477 0 17.461-1.0742 26.922-3.2539 34.551-7.9766 81.355-27.094 81.707-27.918l21.68-52.738 0.023438 77h-83.02c-17.246 0-31.273 18.309-31.273 40.828 0 22.52 14.027 40.836 31.273 40.836l289.14-0.41406c17.246 0 31.281-18.32 31.281-40.828 0-22.52-14.035-40.84-31.281-40.84h-80.016v-76.582l22.828 52.738 0.34766 0.82422c76.328 33.43 107.13 30.344 107.13 30.344 15.125 0.17578 27.727-3.5039 35.328-10.23 6.0742-5.3789 8.8086-12.672 7.9336-21.113z"/>
 </g>
</svg>
